<?xml version="1.0" encoding="utf-8"?>
<!-- Generator: Adobe Illustrator 19.0.0, SVG Export Plug-In . SVG Version: 6.00 Build 0)  -->
<svg version="1.1" id="Layer_1" xmlns="http://www.w3.org/2000/svg" xmlns:xlink="http://www.w3.org/1999/xlink" x="0px" y="0px"
	 viewBox="37 -37.8 274.8 274.8" style="enable-background:new 37 -37.8 274.8 274.8;" xml:space="preserve">
<style type="text/css">
	.st0{fill:#414042;}
</style>
<path class="st0" d="M311.1-1.4L275.4-37c-1-1-2.7-1-3.7,0L64.2,170.5l0,0c-0.1,0.1-0.2,0.2-0.3,0.4c0,0,0,0.1-0.1,0.1
	c-0.1,0.1-0.2,0.3-0.2,0.4l-26.4,62c-0.4,1-0.2,2.1,0.6,2.9c0.5,0.5,1.2,0.8,1.9,0.8c0.3,0,0.7-0.1,1-0.2l62-26.4l0,0l0,0
	c0.1-0.1,0.3-0.1,0.4-0.2c0,0,0.1,0,0.1-0.1c0.1-0.1,0.3-0.2,0.4-0.3l0,0L311.1,2.3c0.5-0.5,0.8-1.2,0.8-1.9
	C311.8-0.2,311.6-0.9,311.1-1.4z M66.9,177l7.7,7.7L57.4,208l-2.6-2.6L66.9,177z M59.4,209.9l17.2-23.3l10.9,10.9l-23.3,17.2
	L59.4,209.9z M80,182.5L283.7-21.2l11.5,11.5L91.5,194.1L80,182.5z M273.6-31.4l8.3,8.3L78.1,180.7l-8.3-8.3L273.6-31.4z
	 M68.7,219.2l-2.6-2.6l23.3-17.2l7.7,7.7L68.7,219.2z M101.7,204.3l-8.3-8.3L297.2-7.8l8.3,8.3L101.7,204.3z"/>
</svg>
