<?xml version="1.0" encoding="utf-8"?>
<!-- Generator: Adobe Illustrator 19.0.0, SVG Export Plug-In . SVG Version: 6.00 Build 0)  -->
<svg version="1.1" id="Layer_1" xmlns="http://www.w3.org/2000/svg" xmlns:xlink="http://www.w3.org/1999/xlink" x="0px" y="0px"
	 viewBox="37 -37.7 274.8 274.7" style="enable-background:new 37 -37.7 274.8 274.7;" xml:space="preserve">
<style type="text/css">
	.st0{fill:#414042;}
</style>
<path class="st0" d="M303.4-29.3c-5.4-5.4-12.7-8.4-20.4-8.4s-14.9,3-20.4,8.4L182,51.4l0,0l0,0l-12.4,12.4
	c-0.5,0.5-0.8,1.2-0.8,1.9s0.3,1.4,0.8,1.9L182,80l-94.3,94.3c-0.2,0.2-0.4,0.5-0.5,0.7c-1.3-0.5-2.7-0.8-4.1-0.7l-8.3-8.3
	c-1-1-2.7-1-3.7,0s-1,2.7,0,3.7l6.4,6.4c-0.5,0.4-1,0.8-1.5,1.3l-1.5,1.5l-6.3-6.3c-1-1-2.7-1-3.7,0s-1,2.7,0,3.7l6.3,6.3l-2.9,2.9
	l-6.3-6.3c-1-1-2.7-1-3.7,0s-1,2.7,0,3.7l6.3,6.3l-2.9,2.9l-6.3-6.3c-1-1-2.7-1-3.7,0s-1,2.7,0,3.7l6.3,6.3l-2.9,2.9l-6.3-6.3
	c-1-1-2.7-1-3.7,0s-1,2.7,0,3.7l6.3,6.3l-1.5,1.5c-0.5,0.5-0.9,1-1.3,1.5l-6.4-6.4c-1-1-2.7-1-3.7,0s-1,2.7,0,3.7l8.3,8.3
	c-0.1,2.8,1,5.6,3.1,7.7l6.2,6.2c2.1,2.1,4.9,3.1,7.7,3.1l8.1,8.1c0.5,0.5,1.2,0.8,1.9,0.8s1.4-0.3,1.9-0.8c1-1,1-2.7,0-3.7
	l-6.2-6.2c0.5-0.4,1-0.8,1.5-1.3l1.5-1.5l6.1,6.1c0.5,0.5,1.2,0.8,1.9,0.8c0.7,0,1.4-0.3,1.9-0.8c1-1,1-2.7,0-3.7l-6.1-6.1l2.9-2.9
	l6.1,6.1c0.5,0.5,1.2,0.8,1.9,0.8c0.7,0,1.4-0.3,1.9-0.8c1-1,1-2.7,0-3.7l-6.1-6.1l2.9-2.9l6.1,6.1c0.5,0.5,1.2,0.8,1.9,0.8
	c0.7,0,1.4-0.3,1.9-0.8c1-1,1-2.7,0-3.7l-6.1-6.1l2.9-2.9l6.1,6.1c0.5,0.5,1.2,0.8,1.9,0.8c0.7,0,1.4-0.3,1.9-0.8c1-1,1-2.7,0-3.7
	l-6.1-6.1l1.5-1.5c0.5-0.5,0.9-1,1.3-1.5l6.2,6.2c0.5,0.5,1.2,0.8,1.9,0.8c0.7,0,1.4-0.3,1.9-0.8c1-1,1-2.7,0-3.7l-8.1-8.1
	c0-1.4-0.2-2.8-0.7-4.2c0.3-0.1,0.5-0.3,0.7-0.5L195,92.3l12.4,12.4c0.5,0.5,1.2,0.8,1.9,0.8s1.4-0.3,1.9-0.8l93.1-93.1
	C314.6,0.2,314.6-18,303.4-29.3z M98.1,180.9l-4.8-4.8l92.4-92.4l4.8,4.8L98.1,180.9z M303.9-18.5c0,3-1.2,5.8-3.3,8l-88.4,88.4
	L196.3,62l88.4-88.4c2.1-2.1,4.9-3.3,8-3.3c0.5,0,1,0,1.5,0.1c2,1.1,3.9,2.5,5.5,4.1c1.7,1.7,3.1,3.6,4.1,5.6
	C303.9-19.5,303.9-19,303.9-18.5z M214.2,93.2l-6.8-6.8l2.9-2.9l6.8,6.8L214.2,93.2z M205.6,84.5l-15.9-15.9l2.9-2.9l15.9,15.9
	L205.6,84.5z M183.9,74.3l3.9-3.9l15.9,15.9l-3.9,3.9L183.9,74.3z M183.9,57l6.8,6.8l-2.9,2.9l-6.8-6.8L183.9,57z M266.4-25.5
	c4.4-4.4,10.3-6.9,16.6-6.9c1.9,0,3.7,0.2,5.5,0.6c-2.1,0.7-4.1,1.8-5.7,3.4L194.4,60l-6.8-6.8L266.4-25.5z M179.1,61.8l6.8,6.8
	l-3.9,3.9l-6.8-6.8L179.1,61.8z M208.5,98.9l-6.8-6.8l3.9-3.9l6.8,6.8L208.5,98.9z M299.7,7.7l-78.8,78.8l-6.8-6.8l88.4-88.4
	c1.6-1.6,2.8-3.5,3.4-5.7C307.7-6.7,305.7,1.7,299.7,7.7z"/>
</svg>
