<?xml version="1.0" encoding="utf-8"?>
<!-- Generator: Adobe Illustrator 18.0.0, SVG Export Plug-In . SVG Version: 6.00 Build 0)  -->
<!DOCTYPE svg PUBLIC "-//W3C//DTD SVG 1.1//EN" "http://www.w3.org/Graphics/SVG/1.1/DTD/svg11.dtd">
<svg version="1.1" id="Layer_1" xmlns="http://www.w3.org/2000/svg" xmlns:xlink="http://www.w3.org/1999/xlink" x="0px" y="0px"
	 viewBox="0 0 1400 980" enable-background="new 0 0 1400 980" xml:space="preserve">
<g>
	<path fill="#414042" d="M349.1,280.5l-92-92c-0.5-0.5-1.2-0.8-2-0.8c-0.7,0-1.4,0.4-1.9,0.9L86.5,383.4c0,0,0,0,0,0
		c-0.1,0.1-0.2,0.2-0.2,0.3c0,0-0.1,0.1-0.1,0.1c0,0.1-0.1,0.2-0.1,0.3c0,0,0,0.1-0.1,0.1c0,0.1-0.1,0.2-0.1,0.3c0,0,0,0.1,0,0.1
		c0,0.1,0,0.3,0,0.4l0.6,25.4l-10.8,10.8c-1,1-1,2.7,0,3.7l36.8,36.8c0.5,0.5,1.2,0.8,1.9,0.8c0.7,0,1.4-0.3,1.9-0.8l10.8-10.8
		l25.4,0.6c0,0,0,0,0,0c0,0,0,0,0,0c0.1,0,0.1,0,0.2,0c0.1,0,0.1,0,0.2,0c0.1,0,0.2,0,0.2,0c0.1,0,0.1,0,0.2,0
		c0.1,0,0.2-0.1,0.2-0.1c0.1,0,0.1-0.1,0.2-0.1c0.1,0,0.1-0.1,0.2-0.1c0.1-0.1,0.2-0.1,0.2-0.2c0,0,0.1,0,0.1-0.1l194.7-166.7
		c0.6-0.5,0.9-1.2,0.9-1.9C349.9,281.8,349.6,281,349.1,280.5z M243.8,207.8l10.8,10.8L99.5,392.3l-7.3-7.3L243.8,207.8z
		 M329.8,293.8L152.7,445.5l-7.3-7.3L319,283L329.8,293.8z M86.3,428.1l8.8-8.8l23.2,23.2l-8.8,8.8L86.3,428.1z M91.3,391.6l4.6,4.6
		c0,0,0,0,0,0.1c0,0,0,0,0,0.1c0,0.1-0.1,0.2-0.1,0.3c0,0,0,0,0,0l-2.3,17.3l-1.8-1.8c0.1-0.2,0.1-0.5,0.1-0.7L91.3,391.6z
		 M101.3,394.2l155.2-173.7l60.7,60.7L143.4,436.3L101.3,394.2z M95.9,416.4l2.2-16.7l39.8,39.8l-16.7,2.2L95.9,416.4z M90.1,414.4
		l3,3l0,0.3l-8.6,8.6l-3.1-3.1L90.1,414.4z M114.5,456.3l-3.1-3.1l8.6-8.6l0.3,0l3,3L114.5,456.3z M126.1,445.8
		c-0.3,0-0.5,0-0.7,0.1l-1.8-1.8l17.3-2.3c0,0,0,0,0,0c0.1,0,0.2,0,0.3-0.1c0,0,0,0,0.1,0c0,0,0,0,0.1,0l4.6,4.6L126.1,445.8z
		 M331.8,292.1L320,280.2l-62.6-62.6l-11.8-11.8l9.8-11.5l2.2,2.2l-6.2,6.2c-0.5,0.5-0.5,1.4,0,1.9c0.3,0.3,0.6,0.4,0.9,0.4
		s0.7-0.1,0.9-0.4l6.2-6.2l3.2,3.2l-6.2,6.2c-0.5,0.5-0.5,1.4,0,1.9c0.3,0.3,0.6,0.4,0.9,0.4s0.7-0.1,0.9-0.4l6.2-6.2l3.2,3.2
		l-6.2,6.2c-0.5,0.5-0.5,1.4,0,1.9c0.3,0.3,0.6,0.4,0.9,0.4s0.7-0.1,0.9-0.4l6.2-6.2l3.2,3.2l-6.2,6.2c-0.5,0.5-0.5,1.4,0,1.9
		c0.3,0.3,0.6,0.4,0.9,0.4s0.7-0.1,0.9-0.4l6.2-6.2l3.2,3.2l-6.2,6.2c-0.5,0.5-0.5,1.4,0,1.9c0.3,0.3,0.6,0.4,0.9,0.4
		s0.7-0.1,0.9-0.4l6.2-6.2l3.2,3.2l-6.2,6.2c-0.5,0.5-0.5,1.4,0,1.9c0.3,0.3,0.6,0.4,0.9,0.4s0.7-0.1,0.9-0.4l6.2-6.2l3.2,3.2
		l-6.2,6.2c-0.5,0.5-0.5,1.4,0,1.9c0.3,0.3,0.6,0.4,0.9,0.4s0.7-0.1,0.9-0.4l6.2-6.2l3.2,3.2l-6.2,6.2c-0.5,0.5-0.5,1.4,0,1.9
		c0.3,0.3,0.6,0.4,0.9,0.4s0.7-0.1,0.9-0.4l6.2-6.2l3.2,3.2l-6.2,6.2c-0.5,0.5-0.5,1.4,0,1.9c0.3,0.3,0.6,0.4,0.9,0.4
		s0.7-0.1,0.9-0.4l6.2-6.2l3.2,3.2l-6.2,6.2c-0.5,0.5-0.5,1.4,0,1.9c0.3,0.3,0.6,0.4,0.9,0.4c0.3,0,0.7-0.1,0.9-0.4l6.2-6.2l3.2,3.2
		l-6.2,6.2c-0.5,0.5-0.5,1.4,0,1.9c0.3,0.3,0.6,0.4,0.9,0.4s0.7-0.1,0.9-0.4l6.2-6.2l3.2,3.2l-6.2,6.2c-0.5,0.5-0.5,1.4,0,1.9
		c0.3,0.3,0.6,0.4,0.9,0.4s0.7-0.1,0.9-0.4l6.2-6.2l3.2,3.2l-6.2,6.2c-0.5,0.5-0.5,1.4,0,1.9c0.3,0.3,0.6,0.4,0.9,0.4
		s0.7-0.1,0.9-0.4l6.2-6.2l3.2,3.2l-6.2,6.2c-0.5,0.5-0.5,1.4,0,1.9c0.3,0.3,0.6,0.4,0.9,0.4s0.7-0.1,0.9-0.4l6.2-6.2l3.2,3.2
		l-6.2,6.2c-0.5,0.5-0.5,1.4,0,1.9c0.3,0.3,0.6,0.4,0.9,0.4c0.3,0,0.7-0.1,0.9-0.4l6.2-6.2l3.2,3.2l-6.2,6.2c-0.5,0.5-0.5,1.4,0,1.9
		c0.3,0.3,0.6,0.4,0.9,0.4c0.3,0,0.7-0.1,0.9-0.4l6.2-6.2l3.2,3.2l-6.2,6.2c-0.5,0.5-0.5,1.4,0,1.9c0.3,0.3,0.6,0.4,0.9,0.4
		c0.3,0,0.7-0.1,0.9-0.4l6.2-6.2l2.2,2.2L331.8,292.1z"/>
	<path fill="#414042" d="M668.5,194.2c-4.1-4.1-9.6-6.4-15.4-6.4s-11.3,2.3-15.4,6.4L495.3,336.6L402,363.9
		c-1.1,0.3-1.8,1.2-1.9,2.3c0,0.4-0.6,8.9,2.9,21.3c3.2,11.4,10.5,28.4,27.3,44.8c27.4,28,56.2,30.2,64.4,30.2c0,0,0,0,0,0
		c1.1,0,1.7,0,1.8,0c1.1-0.1,2-0.8,2.3-1.9l27.3-93.3l142.4-142.4C677,216.5,677,202.6,668.5,194.2z M507.5,346l149-149
		c1.2-1.2,2.8-1.9,4.5-1.9c1.4,0.7,2.7,1.7,3.8,2.8c1.2,1.2,2.1,2.4,2.8,3.8c0,1.6-0.7,3.3-1.9,4.5l-149,149L507.5,346z
		 M641.5,197.9c3.1-3.1,7.3-4.8,11.7-4.8c1.2,0,2.5,0.1,3.6,0.4c-0.8,0.4-1.5,1-2.2,1.6l-149,149l-5.2-5.2L641.5,197.9z
		 M462.9,449.6l19.8-31.4l-13.5,34.1C467.2,451.5,465.1,450.6,462.9,449.6z M494.2,457.3c-4,0-12.2-0.6-22.5-4.2l18.7-47.3
		c0.3-0.6,0-1.4-0.6-1.7c-0.6-0.3-1.4-0.1-1.7,0.5l-27.5,43.7c-5.6-2.8-11.4-6.5-17.4-11.4l23.2-27.8c0.5-0.6,0.4-1.4-0.2-1.9
		c-0.6-0.5-1.4-0.4-1.9,0.2l-23.2,27.8c-2.4-2-4.7-4.2-7.1-6.7c0,0,0,0,0,0c-9.2-9-15.4-18.2-19.6-26.4l19.7-10.5
		c0.6-0.3,0.9-1.1,0.5-1.8c-0.3-0.6-1.1-0.9-1.8-0.5l-19.6,10.5c-1.1-2.3-2-4.5-2.8-6.6l69.2-31.2c0.7-0.3,1-1.1,0.7-1.7
		c-0.3-0.7-1.1-1-1.7-0.7l-69,31.1c-0.5-1.6-1-3-1.4-4.4c-2.4-8.4-2.8-15-2.8-18l90.6-26.5l24.8,24.8L494.2,457.3z M523.7,362.3
		l-5.2-5.2l149-149c0.7-0.7,1.2-1.4,1.6-2.2c1.2,5.3-0.3,11.2-4.4,15.3L523.7,362.3z"/>
	<path fill="#414042" d="M999.2,224.2l-35.6-35.6c-1-1-2.7-1-3.7,0L752.3,396.1c0,0,0,0,0,0c-0.1,0.1-0.2,0.2-0.3,0.4
		c0,0,0,0.1-0.1,0.1c-0.1,0.1-0.2,0.2-0.2,0.4l-26.4,62c-0.4,1-0.2,2.1,0.6,2.9c0.5,0.5,1.2,0.8,1.9,0.8c0.3,0,0.7-0.1,1-0.2
		l62-26.4c0,0,0,0,0,0l0,0c0.1-0.1,0.3-0.1,0.4-0.2c0,0,0.1,0,0.1-0.1c0.1-0.1,0.3-0.2,0.4-0.3c0,0,0,0,0,0l207.5-207.5
		c0.5-0.5,0.8-1.2,0.8-1.9C999.9,225.4,999.7,224.7,999.2,224.2z M755.1,402.6l7.7,7.7l-17.2,23.3L743,431L755.1,402.6z
		 M747.5,435.5l17.2-23.3l10.9,10.9l-23.3,17.2L747.5,435.5z M768.1,408.1l203.8-203.8l11.5,11.5L779.6,419.7L768.1,408.1z
		 M961.7,194.2l8.3,8.3L766.2,406.3l-8.3-8.3L961.7,194.2z M756.8,444.8l-2.6-2.6l23.3-17.2l7.7,7.7L756.8,444.8z M789.8,429.8
		l-8.3-8.3l203.8-203.8l8.3,8.3L789.8,429.8z"/>
	<path fill="#414042" d="M1221.6,339.2C1221.6,339.2,1221.6,339.2,1221.6,339.2l93.5-93.5c6.4-6.4,9.9-14.9,9.9-24s-3.5-17.6-9.9-24
		c-6.4-6.4-14.9-9.9-24-9.9c-9.1,0-17.6,3.5-24,9.9l-93.5,93.5c0,0,0,0,0,0c0,0,0,0,0,0l-12,12l-23.8-23.8c-5.1-5.1-11.9-7.9-19-7.9
		c-7.2,0-14,2.8-19,7.9l-35.6,35.6c-9,9-14,21-14,33.7s5,24.7,14,33.7l66.2,66.2c9,9,21,14,33.7,14c12.7,0,24.7-5,33.7-14l35.6-35.6
		c10.5-10.5,10.5-27.6,0-38.1l-23.8-23.8L1221.6,339.2C1221.6,339.2,1221.6,339.2,1221.6,339.2z M1311.3,242l-91.6,91.6l-10.4-10.4
		l104.8-104.8c1.9-1.9,3.2-4.3,3.8-6.9c1.2,3.2,1.8,6.6,1.8,10.1C1319.7,229.4,1316.7,236.6,1311.3,242z M1212,341.4l-10.4-10.4l4-4
		l10.4,10.4L1212,341.4z M1213.5,367.9c0,3.5-1,6.9-3,9.7l-75.4-75.4c2.9-1.9,6.2-3,9.7-3c2.3,0,4.6,0.5,6.7,1.3l60.6,60.6
		C1213,363.3,1213.5,365.6,1213.5,367.9z M1080.2,391c-2.7-4.9-4.1-10.4-4.1-16.2c0-5.4,1.3-10.6,3.7-15.3l73.6,73.6
		c-4.7,2.4-9.9,3.7-15.3,3.7c-5.7,0-11.3-1.4-16.2-4.1L1080.2,391z M1081.1,357.1c1.3-2.1,2.9-4.2,4.8-6l46.7-46.7
		c0.2-0.2,0.3-0.3,0.5-0.5l75.8,75.8c-0.2,0.2-0.3,0.4-0.5,0.5l-46.7,46.7c-1.8,1.8-3.9,3.4-6,4.8L1081.1,357.1z M1177.5,319.1
		l4.2-4.2l16.1,16.1l-4.2,4.2L1177.5,319.1z M1175.4,296.8l10.4,10.4l-4,4l-10.4-10.4L1175.4,296.8z M1187.6,309l16.1,16.1l-4,4
		l-16.1-16.1L1187.6,309z M1306.2,197.4c1.8,1.2,3.6,2.5,5.2,4.1c1.6,1.6,2.9,3.3,4.1,5.2c0.1,0.6,0.2,1.3,0.2,2
		c0,3-1.2,5.9-3.3,8.1l-104.8,104.8l-16.1-16.1l104.8-104.8c2.2-2.2,5-3.3,8.1-3.3C1304.9,197.2,1305.5,197.3,1306.2,197.4z
		 M1199.7,332.9l10.4,10.4l-4.2,4.2l-10.4-10.4L1199.7,332.9z M1270.8,201.5c5.4-5.4,12.6-8.4,20.3-8.4c3.5,0,6.9,0.6,10.1,1.8
		c-2.6,0.6-4.9,1.9-6.9,3.8l-104.8,104.8l-10.4-10.4L1270.8,201.5z M1169.5,302.7l10.4,10.4l-4.2,4.2l-10.4-10.4L1169.5,302.7z
		 M1134,283.1l13.7,13.7c-1-0.1-1.9-0.2-2.9-0.2c-4.2,0-8.3,1.3-11.6,3.7l-22.2-22.2c2.4-0.9,5-1.4,7.7-1.4
		C1124.5,276.8,1130,279,1134,283.1z M1067.9,318.7l35.6-35.6c1.5-1.5,3.2-2.8,5-3.8l22.7,22.7c-0.2,0.2-0.4,0.3-0.5,0.5l-46.7,46.7
		c-1.8,1.8-3.4,3.8-4.8,6L1058,334C1060.1,328.3,1063.4,323.1,1067.9,318.7z M1055.4,348.7c0-4.1,0.6-8,1.7-11.8l20.6,20.6
		c-2.9,5.2-4.4,11.1-4.4,17.3c0,3.8,0.6,7.6,1.7,11.1l-7.2-7.2C1059.9,370.7,1055.4,360,1055.4,348.7z M1134.1,444.9l-7.2-7.2
		c3.5,1.1,7.3,1.7,11.1,1.7c6.1,0,12-1.5,17.3-4.4l20.6,20.6c-3.8,1.1-7.8,1.7-11.8,1.7C1152.8,457.3,1142.1,452.9,1134.1,444.9z
		 M1229.7,409.4l-35.6,35.6c-4.4,4.4-9.7,7.7-15.4,9.8l-21.1-21.1c2.1-1.4,4.1-3,6-4.8l46.7-46.7c0.2-0.2,0.3-0.3,0.5-0.5l22.7,22.7
		C1232.5,406.1,1231.2,407.8,1229.7,409.4z M1234.6,401.7l-22.2-22.2c2.4-3.4,3.7-7.4,3.7-11.6c0-1-0.1-2-0.2-2.9l13.7,13.7
		C1235.9,385,1237.5,394,1234.6,401.7z"/>
	<path fill="#414042" d="M344.4,703.6l-6.4-9.2c-0.1-1.6-0.3-3.3-0.5-4.9l4.1,4.5c0.3,0.4,0.8,0.5,1.2,0.5c0.4,0,0.8-0.1,1.1-0.4
		c0.7-0.6,0.7-1.7,0.1-2.4l-7.6-8.2c-0.3-1.6-0.7-3.2-1.2-4.8l4.7,3.9c0.3,0.3,0.7,0.4,1.1,0.4c0.5,0,1-0.2,1.3-0.6
		c0.6-0.7,0.5-1.8-0.2-2.4l-8.6-7.1c-0.6-1.6-1.2-3.1-1.8-4.6l5.2,3.2c0.3,0.2,0.6,0.2,0.9,0.2c0.6,0,1.1-0.3,1.4-0.8
		c0.5-0.8,0.2-1.8-0.5-2.3l-9.6-5.9c-0.8-1.5-1.6-2.9-2.4-4.3l5.6,2.5c0.2,0.1,0.4,0.1,0.7,0.1c0.6,0,1.3-0.4,1.5-1
		c0.4-0.8,0-1.8-0.9-2.2l-10.3-4.5c-1-1.3-2-2.7-3-3.9l5.9,1.7c0.2,0,0.3,0.1,0.5,0.1c0.7,0,1.4-0.5,1.6-1.2
		c0.3-0.9-0.3-1.8-1.2-2.1l-10.8-3.1c-1.1-1.2-2.3-2.4-3.5-3.5l6.1,0.8c0.1,0,0.2,0,0.2,0c0.8,0,1.5-0.6,1.7-1.4
		c0.1-0.9-0.5-1.8-1.4-1.9l-11.2-1.6c-1.3-1-2.6-2-3.9-3l6.1,0c0,0,0,0,0,0c0.9,0,1.7-0.7,1.7-1.7c0-0.9-0.7-1.7-1.7-1.7l-11.2,0
		c-1.4-0.8-2.8-1.6-4.3-2.4l6.1-0.8c0.9-0.1,1.6-1,1.4-1.9c-0.1-0.9-1-1.6-1.9-1.4l-11.1,1.5c-0.5-0.2-1-0.4-1.5-0.6
		c0.1-0.7,0.1-1.4,0.1-2.1l2.6-0.7c0.9-0.3,1.4-1.2,1.2-2.1s-1.2-1.4-2.1-1.2l-1.6,0.4c0-0.8,0-1.7,0-2.5
		c0-57.8-47-104.8-104.8-104.8s-104.8,47-104.8,104.8c0,27.9,10.9,54.2,30.6,74c18.1,18.2,41.7,28.9,67.1,30.6l5.9,4.9
		c0.6,1.6,1.2,3.1,1.8,4.6l-5.2-3.2c-0.8-0.5-1.8-0.2-2.3,0.5c-0.5,0.8-0.2,1.8,0.5,2.3l9.6,5.9c0.8,1.5,1.6,2.9,2.4,4.3l-5.6-2.5
		c-0.8-0.4-1.8,0-2.2,0.9c-0.4,0.8,0,1.8,0.9,2.2l10.3,4.5c1,1.3,2,2.7,3,3.9l-5.9-1.7c-0.9-0.3-1.8,0.3-2.1,1.2s0.3,1.8,1.2,2.1
		l10.8,3.1c1.1,1.2,2.3,2.4,3.5,3.5l-6.1-0.8c-0.9-0.1-1.8,0.5-1.9,1.4c-0.1,0.9,0.5,1.8,1.4,1.9l11.2,1.6c1.3,1,2.6,2,3.9,3l-6.1,0
		c0,0,0,0,0,0c-0.9,0-1.7,0.7-1.7,1.7c0,0.9,0.7,1.7,1.7,1.7l11.2,0c1.4,0.8,2.8,1.6,4.3,2.4l-6.1,0.8c-0.9,0.1-1.6,1-1.4,1.9
		c0.1,0.8,0.8,1.4,1.7,1.4c0.1,0,0.2,0,0.2,0l11.1-1.5c1.5,0.6,3,1.2,4.6,1.8l-5.9,1.6c-0.9,0.3-1.4,1.2-1.2,2.1
		c0.2,0.7,0.9,1.2,1.6,1.2c0.1,0,0.3,0,0.5-0.1l10.8-3c1.6,0.4,3.2,0.8,4.8,1.2l-5.6,2.4c-0.8,0.4-1.2,1.4-0.9,2.2
		c0.3,0.6,0.9,1,1.5,1c0.2,0,0.5,0,0.7-0.1l10.2-4.5c1.6,0.2,3.3,0.4,4.9,0.5l-5.2,3.2c-0.8,0.5-1,1.5-0.6,2.3
		c0.3,0.5,0.9,0.8,1.4,0.8c0.3,0,0.6-0.1,0.9-0.2l9.6-5.9c1.1,0,2.1,0,3.2-0.1l-4.8,3.8c-0.7,0.6-0.9,1.6-0.3,2.3
		c0.3,0.4,0.8,0.6,1.3,0.6c0.4,0,0.7-0.1,1-0.4l8.8-6.9c1.6-0.2,3.3-0.5,4.9-0.8l-4.2,4.4c-0.6,0.7-0.6,1.7,0,2.4
		c0.3,0.3,0.7,0.5,1.2,0.5c0.4,0,0.9-0.2,1.2-0.5l7.8-8c1.6-0.4,3.2-0.9,4.7-1.4l-3.6,4.9c-0.5,0.7-0.4,1.8,0.4,2.3
		c0.3,0.2,0.6,0.3,1,0.3c0.5,0,1-0.2,1.4-0.7l6.6-9c1.5-0.6,3-1.3,4.5-2.1l-2.9,5.4c-0.4,0.8-0.1,1.8,0.7,2.3
		c0.3,0.1,0.5,0.2,0.8,0.2c0.6,0,1.2-0.3,1.5-0.9l5.3-9.9c1.4-0.8,2.8-1.7,4.2-2.7l-2.1,5.7c-0.3,0.9,0.1,1.8,1,2.1
		c0.2,0.1,0.4,0.1,0.6,0.1c0.7,0,1.3-0.4,1.6-1.1l3.9-10.6c1.3-1,2.5-2.1,3.7-3.2l-1.3,6c-0.2,0.9,0.4,1.8,1.3,2c0.1,0,0.2,0,0.4,0
		c0.8,0,1.5-0.5,1.6-1.3l2.4-11c1.1-1.2,2.2-2.4,3.3-3.7l-0.5,6.1c-0.1,0.9,0.6,1.7,1.5,1.8c0,0,0.1,0,0.1,0c0.9,0,1.6-0.7,1.7-1.5
		l0.9-11.2c1-1.3,1.9-2.7,2.7-4.1l0.3,6.1c0.1,0.9,0.8,1.6,1.7,1.6c0,0,0.1,0,0.1,0c0.9-0.1,1.6-0.8,1.6-1.8l-0.6-11.2
		c0.8-1.4,1.5-2.9,2.2-4.4l1.2,6c0.2,0.8,0.9,1.3,1.6,1.3c0.1,0,0.2,0,0.3,0c0.9-0.2,1.5-1.1,1.3-2l-2.2-11c0.6-1.5,1.1-3.1,1.5-4.7
		l2,5.7c0.2,0.7,0.9,1.1,1.6,1.1c0.2,0,0.4,0,0.5-0.1c0.9-0.3,1.3-1.3,1-2.1l-3.6-10.6c0.3-1.6,0.6-3.2,0.9-4.9l2.8,5.4
		c0.3,0.6,0.9,0.9,1.5,0.9c0.3,0,0.5-0.1,0.8-0.2c0.8-0.4,1.2-1.4,0.7-2.2l-5.1-10c0.1-1.6,0.2-3.3,0.2-4.9l3.5,5
		c0.3,0.5,0.8,0.7,1.4,0.7c0.3,0,0.7-0.1,1-0.3C344.8,705.4,345,704.4,344.4,703.6z M264.1,619.7c-0.1,0-0.3,0-0.4,0
		c-0.1,0-0.3,0-0.4,0l3.1-1.9c0,0.7,0,1.4,0,2.2C265.6,619.8,264.9,619.8,264.1,619.7z M257.2,619.5c-0.5,0-0.9,0-1.4,0
		c-0.6,0-1.2,0-1.8,0.1l4.8-3.8c0.1-0.1,0.1-0.1,0.2-0.2c0,0.5,0,1,0,1.6c0,0.4,0,0.8,0,1.2L257.2,619.5z M256.8,613.2l-8.8,6.9
		c-1.6,0.2-3.3,0.5-4.9,0.8l4.2-4.4c0.6-0.7,0.6-1.7,0-2.4c-0.7-0.6-1.7-0.6-2.4,0l-7.8,8c-1.6,0.4-3.2,0.9-4.7,1.4l3.6-4.9
		c0.5-0.7,0.4-1.8-0.4-2.3c-0.7-0.5-1.8-0.4-2.3,0.4l-6.6,9c-1.5,0.6-3,1.3-4.5,2.1l2.9-5.4c0.4-0.8,0.1-1.8-0.7-2.3
		c-0.8-0.4-1.8-0.1-2.3,0.7l-5.3,9.9c-1.4,0.8-2.8,1.7-4.2,2.7l2.1-5.7c0.3-0.9-0.1-1.8-1-2.1c-0.9-0.3-1.8,0.1-2.1,1l-3.9,10.6
		c-1.3,1-2.5,2.1-3.7,3.2l1.3-6c0.2-0.9-0.4-1.8-1.3-2c-0.9-0.2-1.8,0.4-2,1.3l-2.4,11c-1.1,1.2-2.2,2.4-3.3,3.7l0.5-6.1
		c0.1-0.9-0.6-1.7-1.5-1.8c-0.9-0.1-1.7,0.6-1.8,1.5l-0.9,11.2c-1,1.3-1.9,2.7-2.7,4.1l-0.3-6.1c-0.1-0.9-0.8-1.6-1.8-1.6
		c-0.9,0.1-1.6,0.8-1.6,1.8l0.6,11.2c-0.8,1.4-1.5,2.9-2.2,4.4l-1.2-6c-0.2-0.9-1.1-1.5-2-1.3c-0.9,0.2-1.5,1.1-1.3,2l2.2,11
		c-0.6,1.5-1.1,3.1-1.5,4.7l-2-5.7c-0.3-0.9-1.3-1.3-2.1-1c-0.9,0.3-1.3,1.3-1,2.1l3.6,10.6c-0.3,1.5-0.6,3-0.8,4.5
		c0,0.1,0,0.3-0.1,0.4l-2.8-5.4c-0.4-0.8-1.4-1.2-2.2-0.7c-0.8,0.4-1.2,1.4-0.7,2.2l4.3,8.4c-39.1-3.3-69.1-35.6-69.1-75.3
		c0-41.7,33.9-75.6,75.6-75.6c40.4,0,73.4,31.8,75.5,71.7C258.4,612.7,257.5,612.7,256.8,613.2z M177.7,695.7
		c-0.1,1.1-0.1,2.2-0.1,3.3l-2.4-3.5C176,695.6,176.9,695.6,177.7,695.7z M262.2,616.4c-0.4-43.1-35.6-78-78.7-78
		c-43.4,0-78.7,35.3-78.7,78.7c0,20.6,7.9,40,22.2,54.8c12,12.4,27.4,20.3,44.1,22.9c0,0.3,0.1,0.7,0.3,0.9l2.6,3.7
		c-41.7-4.7-73.5-39.7-73.5-82.4c0-45.7,37.2-83,83-83c44.6,0,81.1,35.4,82.9,79.7L262.2,616.4z M84.9,617.2
		c0-54.3,44.2-98.5,98.5-98.5s98.5,44.2,98.5,98.5c0,1.4,0,2.9-0.1,4.3l-2.8,0.8c-0.3-0.1-0.6-0.2-0.9-0.2c-0.3-0.1-0.6-0.2-0.9-0.2
		c-0.8-0.2-1.5-0.4-2.3-0.5c-0.2,0-0.4-0.1-0.7-0.1l5.6-2.4c0.8-0.4,1.2-1.4,0.9-2.2c-0.4-0.8-1.4-1.2-2.2-0.9l-9,3.9
		c0-0.8,0-1.6,0-2.4c0-47.5-38.6-86.1-86.1-86.1s-86.1,38.6-86.1,86.1c0,22.5,8.6,43.8,24.3,60c14.6,15.1,33.9,24.1,54.6,25.8
		l1.4,2.1c0,0.3,0,0.5,0,0.8c0,0.3,0.1,0.6,0.1,1c0,0.4,0.1,0.7,0.1,1.1c0,0.3,0.1,0.6,0.1,0.8c0,0.4,0.1,0.8,0.1,1.2
		c0,0,0,0.1,0,0.1l-4.1-4.5c-0.6-0.7-1.7-0.7-2.4-0.1c-0.7,0.6-0.7,1.7-0.1,2.4l7.2,7.8C126.7,713.2,84.9,669.9,84.9,617.2z
		 M331.7,694.3c-0.4-0.1-0.8-0.1-1.2,0.1c-0.8,0.4-1.2,1.4-0.7,2.2l2.2,4.3c0,1.2-0.1,2.4-0.1,3.6c-0.4-0.2-0.8-0.2-1.2-0.1
		c-0.9,0.3-1.3,1.3-1,2.1l1.6,4.5c-0.2,1.2-0.4,2.3-0.6,3.5c-0.3-0.2-0.8-0.3-1.2-0.2c-0.9,0.2-1.5,1.1-1.3,2l0.9,4.7
		c-0.3,1.1-0.7,2.3-1.1,3.4c-0.3-0.3-0.7-0.4-1.2-0.4c-0.9,0.1-1.6,0.8-1.6,1.8l0.3,4.8c-0.5,1.1-1,2.2-1.6,3.2
		c-0.3-0.3-0.7-0.5-1.1-0.5c-0.9-0.1-1.7,0.6-1.8,1.5l-0.4,4.7c-0.6,1-1.3,2-2,3c-0.2-0.3-0.6-0.6-1-0.7c-0.9-0.2-1.8,0.4-2,1.3
		l-1,4.6c-0.8,0.9-1.6,1.8-2.4,2.7c-0.2-0.4-0.5-0.6-0.9-0.8c-0.9-0.3-1.8,0.1-2.1,1l-1.6,4.4c-0.9,0.8-1.8,1.6-2.7,2.3
		c-0.1-0.4-0.4-0.7-0.8-0.9c-0.8-0.4-1.8-0.1-2.3,0.7l-2.2,4.2c-1,0.7-2,1.3-3,1.9c-0.1-0.4-0.3-0.8-0.7-1c-0.7-0.5-1.8-0.4-2.3,0.4
		l-2.8,3.8c-1.1,0.5-2.1,1-3.2,1.5c0-0.4-0.2-0.8-0.5-1.1c-0.7-0.6-1.7-0.6-2.4,0l-3.3,3.4c-1.1,0.4-2.3,0.7-3.4,1
		c0-0.4-0.1-0.8-0.3-1.2c-0.6-0.7-1.6-0.9-2.3-0.3l-3.8,3c-0.6,0.1-1.3,0.2-1.9,0.3c0.1-0.4,0-0.8-0.2-1.2c-0.5-0.8-1.5-1-2.3-0.6
		l-4.1,2.5c-1.2,0.1-2.4,0.1-3.6,0.1c0.1-0.4,0.1-0.8,0-1.2c-0.4-0.8-1.4-1.2-2.2-0.9l-4.4,1.9c-1.2-0.1-2.4-0.2-3.5-0.3
		c0.2-0.4,0.3-0.8,0.1-1.2c-0.3-0.9-1.2-1.4-2.1-1.2l-4.6,1.3c-1.2-0.2-2.3-0.5-3.5-0.8c0.2-0.3,0.4-0.8,0.3-1.2
		c-0.1-0.9-1-1.6-1.9-1.4l-4.7,0.7c-1.1-0.4-2.2-0.8-3.3-1.3c0.3-0.3,0.5-0.7,0.5-1.1c0-0.9-0.7-1.7-1.7-1.7l-4.7,0
		c-1.1-0.6-2.1-1.1-3.1-1.7c0.3-0.3,0.5-0.6,0.6-1.1c0.1-0.9-0.5-1.8-1.4-1.9l-4.7-0.6c-1-0.7-1.9-1.4-2.9-2.2
		c0.3-0.2,0.6-0.5,0.7-1c0.3-0.9-0.3-1.8-1.2-2.1l-4.5-1.3c-0.9-0.8-1.7-1.7-2.6-2.5c0.4-0.2,0.7-0.5,0.8-0.9c0.4-0.8,0-1.8-0.9-2.2
		l-4.3-1.9c-0.8-0.9-1.5-1.9-2.2-2.9c0.4-0.1,0.7-0.4,1-0.7c0.5-0.8,0.2-1.8-0.5-2.3l-4-2.5c-0.6-1-1.2-2.1-1.8-3.1
		c0.4-0.1,0.8-0.2,1.1-0.6c0.6-0.7,0.5-1.8-0.2-2.4l-3.7-3c-0.5-1.1-0.9-2.2-1.3-3.3c0,0,0,0,0,0c0.4,0,0.8-0.1,1.1-0.4
		c0.7-0.6,0.7-1.7,0.1-2.4l-3.2-3.5c-0.2-0.7-0.4-1.5-0.6-2.2c0-0.1,0-0.1,0-0.2c-0.1-0.4-0.2-0.7-0.2-1.1c0.1,0,0.2,0,0.3,0
		c0.3,0,0.7-0.1,1-0.3c0.8-0.5,0.9-1.6,0.4-2.3l-2.7-3.9c0-0.1,0-0.2,0-0.3c-0.1-0.5-0.1-1-0.2-1.6c0-0.2,0-0.5-0.1-0.7
		c0-0.3-0.1-0.6-0.1-1c0.2,0,0.3,0.1,0.5,0.1c0.3,0,0.5-0.1,0.8-0.2c0.8-0.4,1.2-1.4,0.7-2.2l-2.2-4.3c0-1.2,0.1-2.4,0.1-3.6
		c0.2,0.1,0.4,0.2,0.7,0.2c0.2,0,0.4,0,0.5-0.1c0.9-0.3,1.3-1.3,1-2.1l-1.6-4.5c0.2-1.2,0.4-2.3,0.6-3.5c0.3,0.2,0.6,0.3,0.9,0.3
		c0.1,0,0.2,0,0.3,0c0.9-0.2,1.5-1.1,1.3-2l-0.9-4.7c0.3-1.1,0.7-2.3,1.1-3.4c0.3,0.2,0.7,0.4,1.1,0.4c0,0,0.1,0,0.1,0
		c0.9-0.1,1.6-0.8,1.6-1.8l-0.3-4.8c0.5-1.1,1-2.1,1.6-3.2c0.3,0.3,0.7,0.5,1.1,0.5c0,0,0.1,0,0.1,0c0.9,0,1.6-0.7,1.7-1.5l0.4-4.7
		c0.6-1,1.3-2,2-3c0.2,0.3,0.6,0.6,1,0.7c0.1,0,0.2,0,0.4,0c0.8,0,1.5-0.5,1.6-1.3l1-4.6c0.8-0.9,1.6-1.8,2.4-2.7
		c0.2,0.4,0.5,0.6,0.9,0.8c0.2,0.1,0.4,0.1,0.6,0.1c0.7,0,1.3-0.4,1.6-1.1l1.6-4.4c0.9-0.8,1.8-1.6,2.7-2.3c0.1,0.4,0.4,0.7,0.8,0.9
		c0.3,0.1,0.5,0.2,0.8,0.2c0.6,0,1.2-0.3,1.5-0.9l2.2-4.2c1-0.7,2-1.3,3-1.9c0.1,0.4,0.3,0.8,0.7,1c0.3,0.2,0.6,0.3,1,0.3
		c0.5,0,1-0.2,1.4-0.7l2.8-3.8c1.1-0.5,2.1-1,3.2-1.5c0,0.4,0.2,0.8,0.5,1.1c0.3,0.3,0.7,0.5,1.2,0.5c0.4,0,0.9-0.2,1.2-0.5l3.3-3.4
		c1.1-0.4,2.3-0.7,3.4-1c0,0.4,0.1,0.8,0.3,1.2c0.3,0.4,0.8,0.6,1.3,0.6c0.4,0,0.7-0.1,1-0.4l3.8-3c0.6-0.1,1.3-0.2,1.9-0.3
		c-0.1,0.4,0,0.8,0.2,1.2c0.3,0.5,0.9,0.8,1.4,0.8c0.3,0,0.6-0.1,0.9-0.2l4.1-2.5c1.2-0.1,2.4-0.1,3.6-0.1c-0.1,0.4-0.1,0.8,0,1.2
		c0.3,0.6,0.9,1,1.5,1c0.2,0,0.5,0,0.7-0.1l4.4-1.9c0,0,0.1,0,0.1,0c0.2,0,0.3,0,0.5,0c0.5,0,1,0.1,1.4,0.1c0.1,0,0.2,0,0.3,0
		c0.4,0,0.8,0.1,1.2,0.1c-0.2,0.4-0.3,0.8-0.1,1.2c0.2,0.7,0.9,1.2,1.6,1.2c0.1,0,0.3,0,0.5-0.1l4.6-1.3c1.2,0.2,2.3,0.5,3.5,0.8
		c-0.2,0.3-0.4,0.8-0.3,1.2c0.1,0.8,0.8,1.4,1.7,1.4c0.1,0,0.2,0,0.2,0l4.7-0.7c1.1,0.4,2.2,0.8,3.3,1.3c-0.3,0.3-0.5,0.7-0.5,1.1
		c0,0.9,0.7,1.7,1.7,1.7l4.7,0c1.1,0.6,2.1,1.1,3.1,1.7c-0.3,0.3-0.5,0.6-0.6,1.1c-0.1,0.9,0.5,1.8,1.4,1.9l4.7,0.7
		c1,0.7,1.9,1.4,2.9,2.2c-0.3,0.2-0.6,0.5-0.7,1c-0.3,0.9,0.3,1.8,1.2,2.1l4.5,1.3c0.9,0.8,1.7,1.7,2.6,2.5
		c-0.4,0.2-0.7,0.5-0.9,0.8c-0.4,0.8,0,1.8,0.9,2.2l4.3,1.9c0.8,0.9,1.5,1.9,2.2,2.9c-0.4,0.1-0.7,0.4-1,0.7
		c-0.5,0.8-0.2,1.8,0.5,2.3l4,2.5c0.6,1,1.2,2.1,1.8,3.1c-0.4,0.1-0.8,0.3-1.1,0.6c-0.6,0.7-0.5,1.8,0.2,2.4l3.7,3
		c0.5,1.1,0.9,2.2,1.3,3.3c-0.4,0-0.8,0.1-1.2,0.4c-0.7,0.6-0.7,1.7-0.1,2.4l3.2,3.5c0.3,1.1,0.6,2.3,0.8,3.5
		c-0.4-0.1-0.8,0-1.2,0.3c-0.8,0.5-0.9,1.6-0.4,2.3l2.7,3.9C331.5,691.9,331.6,693.1,331.7,694.3z"/>
	<path fill="#414042" d="M666.5,521.4c-5.4-5.4-12.7-8.4-20.4-8.4c-7.7,0-14.9,3-20.4,8.4L545.1,602c0,0,0,0,0,0s0,0,0,0l-12.4,12.4
		c-0.5,0.5-0.8,1.2-0.8,1.9s0.3,1.4,0.8,1.9l12.4,12.4l-94.3,94.3c-0.2,0.2-0.4,0.5-0.5,0.7c-1.3-0.5-2.7-0.8-4.1-0.7l-8.3-8.3
		c-1-1-2.7-1-3.7,0c-1,1-1,2.7,0,3.7l6.4,6.4c-0.5,0.4-1,0.8-1.5,1.3l-1.5,1.5l-6.3-6.3c-1-1-2.7-1-3.7,0c-1,1-1,2.7,0,3.7l6.3,6.3
		l-2.9,2.9l-6.3-6.3c-1-1-2.7-1-3.7,0c-1,1-1,2.7,0,3.7l6.3,6.3l-2.9,2.9l-6.3-6.3c-1-1-2.7-1-3.7,0c-1,1-1,2.7,0,3.7l6.3,6.3
		l-2.9,2.9l-6.3-6.3c-1-1-2.7-1-3.7,0c-1,1-1,2.7,0,3.7l6.3,6.3l-1.5,1.5c-0.5,0.5-0.9,1-1.3,1.5l-6.4-6.4c-1-1-2.7-1-3.7,0
		c-1,1-1,2.7,0,3.7l8.3,8.3c-0.1,2.8,1,5.6,3.1,7.7l6.2,6.2c2.1,2.1,4.9,3.1,7.7,3.1l8.1,8.1c0.5,0.5,1.2,0.8,1.9,0.8
		s1.4-0.3,1.9-0.8c1-1,1-2.7,0-3.7l-6.2-6.2c0.5-0.4,1-0.8,1.5-1.3l1.5-1.5l6.1,6.1c0.5,0.5,1.2,0.8,1.9,0.8c0.7,0,1.4-0.3,1.9-0.8
		c1-1,1-2.7,0-3.7l-6.1-6.1l2.9-2.9l6.1,6.1c0.5,0.5,1.2,0.8,1.9,0.8c0.7,0,1.4-0.3,1.9-0.8c1-1,1-2.7,0-3.7l-6.1-6.1l2.9-2.9
		l6.1,6.1c0.5,0.5,1.2,0.8,1.9,0.8c0.7,0,1.4-0.3,1.9-0.8c1-1,1-2.7,0-3.7l-6.1-6.1l2.9-2.9l6.1,6.1c0.5,0.5,1.2,0.8,1.9,0.8
		c0.7,0,1.4-0.3,1.9-0.8c1-1,1-2.7,0-3.7l-6.1-6.1l1.5-1.5c0.5-0.5,0.9-1,1.3-1.5l6.2,6.2c0.5,0.5,1.2,0.8,1.9,0.8s1.4-0.3,1.9-0.8
		c1-1,1-2.7,0-3.7l-8.1-8.1c0-1.4-0.2-2.8-0.7-4.2c0.3-0.1,0.5-0.3,0.7-0.5l94.3-94.3l12.4,12.4c0.5,0.5,1.2,0.8,1.9,0.8
		s1.4-0.3,1.9-0.8l93.1-93.1C677.7,550.9,677.7,532.6,666.5,521.4z M461.1,731.5l-4.8-4.8l92.4-92.4l4.8,4.8L461.1,731.5z
		 M667,532.1c0,3-1.2,5.8-3.3,8l-88.4,88.4l-15.9-15.9l88.4-88.4c2.1-2.1,4.9-3.3,8-3.3c0.5,0,1,0,1.5,0.1c2,1.1,3.9,2.5,5.5,4.1
		c1.7,1.7,3.1,3.6,4.1,5.6C666.9,531.1,667,531.6,667,532.1z M577.3,643.8l-6.8-6.8l2.9-2.9l6.8,6.8L577.3,643.8z M568.6,635.1
		l-15.9-15.9l2.9-2.9l15.9,15.9L568.6,635.1z M547,625l3.9-3.9l15.9,15.9l-3.9,3.9L547,625z M546.9,607.6l6.8,6.8l-2.9,2.9l-6.8-6.8
		L546.9,607.6z M629.5,525.1c4.4-4.4,10.3-6.9,16.6-6.9c1.9,0,3.7,0.2,5.5,0.6c-2.1,0.7-4.1,1.8-5.7,3.4l-88.4,88.4l-6.8-6.8
		L629.5,525.1z M542.2,612.4l6.8,6.8l-3.9,3.9l-6.8-6.8L542.2,612.4z M571.5,649.5l-6.8-6.8l3.9-3.9l6.8,6.8L571.5,649.5z
		 M662.7,558.4l-78.8,78.8l-6.8-6.8l88.4-88.4c1.6-1.6,2.8-3.5,3.4-5.7C670.8,543.9,668.7,552.4,662.7,558.4z"/>
	<g>
		<path fill="#414042" d="M976.5,569.9l-33.6-33.6c-1-1-2.7-1-3.7,0l-33.5,33.5l-1.2-1.2c-0.5-0.5-1.2-0.8-1.9-0.8s-1.4,0.3-1.9,0.8
			l-7.3,7.3l-18-18c-3.1-3.1-7.1-4.7-11.4-4.7c-4.3,0-8.4,1.7-11.4,4.7L725.1,685.2c-2.9,2.9-4.6,6.8-4.6,11c0,4.2,1.6,8.1,4.6,11
			l80.4,80.4c2.9,2.9,6.8,4.6,11,4.6c4.2,0,8.1-1.6,11-4.6L955,660.2c6.3-6.3,6.3-16.6,0-22.9l-18-18l7.3-7.3c1-1,1-2.7,0-3.7
			l-1.2-1.2l33.5-33.5C977.5,572.6,977.5,570.9,976.5,569.9z M953.1,569.4c0-0.2-0.1-0.4-0.1-0.6c0-0.1-0.1-0.2-0.1-0.3
			c-0.1-0.2-0.1-0.4-0.2-0.6c0-0.1-0.1-0.3-0.1-0.4c-0.1-0.2-0.1-0.4-0.2-0.6c-0.1-0.1-0.1-0.3-0.2-0.4c-0.1-0.3-0.3-0.5-0.4-0.8
			c-0.1-0.2-0.2-0.4-0.3-0.6c-0.1-0.1-0.2-0.3-0.3-0.4c-0.1-0.2-0.3-0.4-0.4-0.6c-0.1-0.1-0.2-0.2-0.2-0.3c-0.2-0.3-0.5-0.6-0.7-0.8
			c-0.3-0.3-0.5-0.5-0.8-0.7c-0.1-0.1-0.2-0.1-0.3-0.2c-0.2-0.2-0.4-0.3-0.6-0.4c-0.1-0.1-0.2-0.2-0.3-0.2c-0.2-0.1-0.4-0.3-0.7-0.4
			c-0.2-0.1-0.3-0.2-0.5-0.3c-0.2-0.1-0.4-0.2-0.7-0.3c-0.2-0.1-0.4-0.1-0.5-0.2c-0.1-0.1-0.3-0.1-0.4-0.2c-0.2-0.1-0.4-0.1-0.6-0.2
			c-0.1,0-0.2-0.1-0.3-0.1c-0.2-0.1-0.4-0.1-0.7-0.2l7.7-7.7l9.7,9.7L953.1,569.4z M941.7,581.3
			C941.7,581.3,941.7,581.3,941.7,581.3c-0.4,0-0.7,0-1,0c0,0,0,0-0.1,0c-0.3,0-0.6,0-0.9-0.1c0,0-0.1,0-0.1,0
			c-0.3,0-0.6-0.1-0.9-0.2c0,0-0.1,0-0.1,0c-0.3-0.1-0.6-0.2-0.8-0.3c0,0-0.1,0-0.1,0c-0.3-0.1-0.5-0.2-0.8-0.3c0,0-0.1,0-0.1-0.1
			c-0.2-0.1-0.5-0.3-0.7-0.4c-0.1,0-0.1-0.1-0.2-0.1c-0.2-0.1-0.4-0.3-0.6-0.5c-0.1,0-0.1-0.1-0.2-0.1c-0.3-0.2-0.5-0.4-0.7-0.7
			c-0.2-0.2-0.5-0.5-0.7-0.8c0,0,0,0,0-0.1c-0.2-0.2-0.4-0.5-0.6-0.8c0,0,0,0,0,0c-0.2-0.3-0.3-0.6-0.5-0.8c0,0,0,0,0,0
			c-0.1-0.3-0.3-0.6-0.4-0.9c0,0,0,0,0-0.1c-0.1-0.3-0.2-0.6-0.3-0.9c0,0,0-0.1,0-0.1c-0.1-0.3-0.1-0.6-0.2-0.9c0,0,0-0.1,0-0.1
			c0-0.3-0.1-0.6-0.1-0.9c0,0,0-0.1,0-0.1c0-0.3,0-0.6,0-0.9c0.1-2.3,1-4.6,2.8-6.3c1.7-1.7,3.9-2.7,6.2-2.8c0,0,0,0,0,0
			c0.3,0,0.7,0,1,0c0,0,0,0,0,0c0.3,0,0.6,0,1,0.1c0,0,0,0,0.1,0c0.3,0,0.6,0.1,0.9,0.2c0,0,0,0,0.1,0c0.3,0.1,0.6,0.2,0.9,0.3
			c0,0,0,0,0.1,0c0.3,0.1,0.6,0.2,0.8,0.4c0,0,0.1,0,0.1,0c0.3,0.1,0.5,0.3,0.7,0.4c0,0,0.1,0,0.1,0.1c0.2,0.1,0.5,0.3,0.7,0.5
			c0,0,0.1,0.1,0.1,0.1c0.3,0.2,0.5,0.4,0.7,0.7c0.2,0.2,0.5,0.5,0.7,0.8c0,0,0,0,0,0.1c0.2,0.2,0.4,0.5,0.5,0.8c0,0,0,0,0,0
			c0.2,0.3,0.3,0.6,0.5,0.8c0,0,0,0,0,0c0.1,0.3,0.3,0.6,0.4,0.9c0,0,0,0,0,0.1c0.1,0.3,0.2,0.6,0.3,0.9c0,0,0,0.1,0,0.1
			c0.1,0.3,0.1,0.6,0.2,0.9c0,0,0,0.1,0,0.1c0,0.3,0.1,0.6,0.1,0.9c0,0.1,0,0.1,0,0.2c0,0.3,0,0.6,0,0.9c-0.1,2.3-1,4.6-2.8,6.3
			C946.2,580.2,944,581.2,941.7,581.3z M933.6,634.3l-2.5,2.5L876,581.7l2.5-2.5c1.7-1.7,3.9-2.6,6.3-2.6c0.7,0,1.4,0.1,2.1,0.3
			l49,49C936.7,628.8,935.9,632,933.6,634.3z M945,662.8L830.2,777.5c-0.9,0.3-1.9,0.4-2.9,0.4c-2.8,0-5.5-1.1-7.5-3.1l-11.5-11.5
			l122.8-122.8l11.1,11.1C945.2,654.6,946.1,659,945,662.8z M806.4,761.5l-55.1-55.1l122.8-122.8l55.1,55.1L806.4,761.5z
			 M793.8,768.5l-49.5-49.5c-0.1-0.6-0.2-1.2-0.2-1.9c0-2.3,0.9-4.4,2.5-6l2.9-2.9l55.1,55.1l-2.9,2.9c-1.6,1.6-3.7,2.5-6,2.5
			C795.1,768.7,794.5,768.6,793.8,768.5z M735.3,682.5L850,567.8c1-0.3,2.1-0.5,3.2-0.5c3,0,5.8,1.2,7.9,3.3l11.1,11.1L749.5,704.5
			L738,693C735.1,690.2,734.2,686.1,735.3,682.5z M904.7,587l5.4-5.4l21.1,21.1l-5.4,5.4L904.7,587z M919.5,583.6l9.6-9.6
			c0,0.2,0.1,0.4,0.1,0.6c0,0.1,0.1,0.2,0.1,0.3c0.1,0.2,0.1,0.4,0.2,0.6c0,0.1,0.1,0.3,0.1,0.4c0.1,0.2,0.1,0.4,0.2,0.6
			c0.1,0.1,0.1,0.3,0.2,0.4c0.1,0.3,0.2,0.5,0.4,0.7c0.1,0.2,0.2,0.4,0.4,0.6c0.1,0.1,0.2,0.2,0.3,0.4c0.1,0.2,0.3,0.4,0.4,0.6
			c0.1,0.1,0.2,0.2,0.2,0.3c0.2,0.3,0.5,0.6,0.7,0.8c0.3,0.3,0.5,0.5,0.8,0.7c0.1,0.1,0.2,0.1,0.3,0.2c0.2,0.2,0.4,0.3,0.6,0.5
			c0.1,0.1,0.2,0.1,0.3,0.2c0.2,0.1,0.4,0.3,0.7,0.4c0.1,0.1,0.3,0.2,0.4,0.2c0.2,0.1,0.5,0.2,0.7,0.3c0.2,0.1,0.3,0.1,0.5,0.2
			c0.1,0.1,0.3,0.1,0.4,0.2c0.2,0.1,0.4,0.1,0.6,0.2c0.1,0,0.2,0.1,0.3,0.1c0.2,0.1,0.4,0.1,0.7,0.2l-9.6,9.6L919.5,583.6z
			 M941,541.9l8.2,8.2l-9.4,9.4c-2.8,0.3-5.4,1.5-7.5,3.5c-2.1,2.1-3.3,4.7-3.5,7.5l-11.3,11.3l-8.2-8.2L941,541.9z M902.6,574.2
			l5.6,5.6l-5.4,5.4l-5.6-5.6L902.6,574.2z M864,558.3c2.9,0,5.6,1.1,7.7,3.2l12.4,12.4c-2.8,0.2-5.4,1.4-7.4,3.4l-2.5,2.5
			L863,568.7c-2.6-2.6-6.1-4-9.8-4c0,0-0.1,0-0.1,0l3.2-3.2C858.3,559.5,861.1,558.3,864,558.3z M725.9,696.2c0-2.7,1.1-5.3,3-7.3
			l3.4-3.4c0,3.4,1.3,6.7,3.9,9.3l11.5,11.5l-2.9,2.9c-1.9,1.9-3,4.4-3.2,6.9l-12.7-12.7C726.9,701.5,725.9,699,725.9,696.2z
			 M816.6,786.9c-2.7,0-5.3-1.1-7.3-3l-12.7-12.7c2.6-0.2,5-1.3,6.9-3.2l2.9-2.9l11.5,11.5c2.5,2.5,5.8,3.8,9.3,3.9l-3.3,3.3
			C821.9,785.9,819.3,786.9,816.6,786.9z M951.3,656.5l-3.2,3.2c0-3.6-1.3-7.2-4-9.9L933,638.7l2.5-2.5c2.1-2.1,3.2-4.7,3.4-7.4
			l12.4,12.4C955.5,645.4,955.5,652.3,951.3,656.5z M933.2,615.6l-5.6-5.6l5.4-5.4l5.6,5.6L933.2,615.6z M939.3,603.4l-8.2-8.2
			l11.3-11.3c2.8-0.3,5.4-1.5,7.5-3.5c2.1-2.1,3.3-4.7,3.5-7.5l9.4-9.4l8.2,8.2L939.3,603.4z"/>
		<path fill="#414042" d="M941.1,566.2c-1.5,0-2.9,0.6-3.9,1.6c-1,1-1.6,2.4-1.6,3.9c0,1.5,0.6,2.9,1.6,3.9c1,1,2.4,1.6,3.9,1.6
			c1.5,0,2.9-0.6,3.9-1.6c1-1,1.6-2.4,1.6-3.9c0-1.5-0.6-2.9-1.6-3.9C944,566.8,942.6,566.2,941.1,566.2z M943.1,573.7
			c-0.5,0.5-1.3,0.8-2,0.8c-0.8,0-1.5-0.3-2-0.8c-0.5-0.5-0.8-1.3-0.8-2c0-0.8,0.3-1.5,0.8-2s1.3-0.8,2-0.8c0.8,0,1.5,0.3,2,0.8
			s0.8,1.3,0.8,2C944,572.5,943.7,573.2,943.1,573.7z"/>
	</g>
	<path fill="#414042" d="M1317.6,560.9l-12.2-40c-1.5-4.8-5.9-8.1-10.9-8.1c-3,0-5.9,1.2-8,3.3l-82.1,82.1l-5.7-5.7
		c-0.5-0.5-1.2-0.8-1.9-0.8c-0.7,0-1.4,0.3-1.9,0.8l-137.1,137.1c-0.5,0.5-0.8,1.2-0.8,1.9s0.3,1.4,0.8,1.9l53.5,53.5
		c0.5,0.5,1.2,0.8,1.9,0.8c0.7,0,1.4-0.3,1.9-0.8l137.1-137.1c1-1,1-2.7,0-3.7l-5.7-5.7l68.2-68.2
		C1317.7,569.3,1318.8,564.9,1317.6,560.9z M1122.8,771.8l-9.5-9.5l6.5-6.5l9.5,9.5L1122.8,771.8z M1111.4,760.4l-27-27l6.5-6.5
		l27,27L1111.4,760.4z M1074.9,742.9l7.6-7.6l27,27l-7.6,7.6L1074.9,742.9z M1079.4,715.5l9.5,9.5l-6.5,6.5l-9.5-9.5L1079.4,715.5z
		 M1092.7,725.1l115.5-115.5l27,27l-115.5,115.5L1092.7,725.1z M1218.1,612l83.9-83.9l6.9,22.5l-76.1,76.1L1218.1,612z
		 M1290.1,519.9c1.2-1.2,2.7-1.8,4.3-1.8c2.3,0,5,1.3,5.9,4.3l0.8,2.8l-84.9,84.9l-8.2-8.2L1290.1,519.9z M1196.8,598.2l9.5,9.5
		l-115.5,115.5l-9.5-9.5L1196.8,598.2z M1071.1,723.9l9.5,9.5l-7.6,7.6l-9.5-9.5L1071.1,723.9z M1113.3,781.3l-9.5-9.5l7.6-7.6
		l9.5,9.5L1113.3,781.3z M1131.1,763.5l-9.5-9.5l115.5-115.5l9.5,9.5L1131.1,763.5z M1311,568.5l-68.2,68.2l-8.2-8.2l75.1-75.1
		l2.7,9C1313.2,564.6,1312.6,566.9,1311,568.5z"/>
</g>
</svg>
