<?xml version="1.0" encoding="utf-8"?>
<!-- Generator: Adobe Illustrator 19.0.0, SVG Export Plug-In . SVG Version: 6.00 Build 0)  -->
<svg version="1.1" id="Layer_1" xmlns="http://www.w3.org/2000/svg" xmlns:xlink="http://www.w3.org/1999/xlink" x="0px" y="0px"
	 viewBox="0 0 274.8 274.8" style="enable-background:new 0 0 274.8 274.8;" xml:space="preserve">
<style type="text/css">
	.st0{fill:#414042;}
</style>
<path class="st0" d="M268.5,6.4c-4.1-4.1-9.6-6.4-15.4-6.4s-11.3,2.3-15.4,6.4L95.2,148.8L1.9,176.1c-1.1,0.3-1.8,1.2-1.9,2.3
	c0,0.4-0.6,8.9,2.9,21.3c3.2,11.4,10.5,28.4,27.3,44.8c27.4,28,56.2,30.2,64.4,30.2c0,0,0,0,0,0c1.1,0,1.7,0,1.8,0
	c1.1-0.1,2-0.8,2.3-1.9l27.3-93.3L268.5,37.1C277,28.7,277,14.9,268.5,6.4z M107.4,158.2l149-149c1.2-1.2,2.8-1.9,4.5-1.9
	c1.4,0.7,2.7,1.7,3.8,2.8c1.2,1.2,2.1,2.4,2.8,3.8c0,1.6-0.7,3.3-1.9,4.5l-149,149L107.4,158.2z M241.4,10.1
	c3.1-3.1,7.3-4.8,11.7-4.8c1.2,0,2.5,0.1,3.6,0.4c-0.8,0.4-1.5,1-2.2,1.6l-149,149l-5.2-5.2L241.4,10.1z M62.9,261.8l19.8-31.4
	l-13.5,34.1C67.1,263.7,65,262.8,62.9,261.8z M94.2,269.6c-4,0-12.2-0.6-22.5-4.2l18.7-47.3c0.3-0.6,0-1.4-0.6-1.7
	c-0.6-0.3-1.4-0.1-1.7,0.5l-27.5,43.7c-5.6-2.8-11.4-6.5-17.4-11.4l23.2-27.8c0.5-0.6,0.4-1.4-0.2-1.9c-0.6-0.5-1.4-0.4-1.9,0.2
	l-23.2,27.8c-2.4-2-4.7-4.2-7.1-6.7c0,0,0,0,0,0c-9.2-9-15.4-18.2-19.6-26.4L34,204c0.6-0.3,0.9-1.1,0.5-1.8
	c-0.3-0.6-1.1-0.9-1.8-0.5l-19.6,10.5c-1.1-2.3-2-4.5-2.8-6.6l69.2-31.2c0.7-0.3,1-1.1,0.7-1.7c-0.3-0.7-1.1-1-1.7-0.7l-69,31.1
	c-0.5-1.6-1-3-1.4-4.4c-2.4-8.4-2.8-15-2.8-18l90.6-26.5l24.8,24.8L94.2,269.6z M123.7,174.5l-5.2-5.2l149-149
	c0.7-0.7,1.2-1.4,1.6-2.2c1.2,5.3-0.3,11.2-4.4,15.3L123.7,174.5z"/>
</svg>
