<?xml version="1.0" encoding="utf-8"?>
<!-- Generator: Adobe Illustrator 19.0.0, SVG Export Plug-In . SVG Version: 6.00 Build 0)  -->
<svg version="1.1" id="Layer_1" xmlns="http://www.w3.org/2000/svg" xmlns:xlink="http://www.w3.org/1999/xlink" x="0px" y="0px"
	 viewBox="0 0 274.8 274.8" style="enable-background:new 0 0 274.8 274.8;" xml:space="preserve">
<style type="text/css">
	.st0{fill:#414042;}
</style>
<path class="st0" d="M171.4,151.4L171.4,151.4L264.9,58c6.4-6.4,9.9-14.9,9.9-24c0-9.1-3.5-17.6-9.9-24C258.5,3.5,250,0,240.9,0
	c-9.1,0-17.6,3.5-24,9.9l-93.5,93.5c0,0,0,0,0,0c0,0,0,0,0,0l-12,12L87.6,91.6c-5.1-5.1-11.9-7.9-19-7.9c-7.2,0-14,2.8-19,7.9
	L14,127.1c-9,9-14,21-14,33.7c0,12.7,5,24.7,14,33.7l66.2,66.2c9,9,21,14,33.7,14c12.7,0,24.7-5,33.7-14l35.6-35.6
	c10.5-10.5,10.5-27.6,0-38.1l-23.8-23.8L171.4,151.4L171.4,151.4z M261.2,54.2l-91.6,91.6l-10.4-10.4L264,30.7
	c1.9-1.9,3.2-4.3,3.8-6.9c1.2,3.2,1.8,6.6,1.8,10.1C269.6,41.6,266.6,48.8,261.2,54.2z M161.8,153.6l-10.4-10.4l4-4l10.4,10.4
	L161.8,153.6z M163.3,180.1c0,3.5-1,6.9-3,9.7L85,114.5c2.9-1.9,6.2-3,9.7-3c2.3,0,4.6,0.5,6.7,1.3l60.6,60.6
	C162.9,175.5,163.3,177.8,163.3,180.1z M30,203.2c-2.7-4.9-4.1-10.4-4.1-16.2c0-5.4,1.3-10.6,3.7-15.3l73.6,73.6
	c-4.7,2.4-9.9,3.7-15.3,3.7c-5.7,0-11.3-1.4-16.2-4.1L30,203.2z M30.9,169.3c1.3-2.1,2.9-4.2,4.8-6l46.7-46.7
	c0.2-0.2,0.3-0.3,0.5-0.5l75.8,75.8c-0.2,0.2-0.3,0.4-0.5,0.5l-46.7,46.7c-1.8,1.8-3.9,3.4-6,4.8L30.9,169.3z M127.4,131.4l4.2-4.2
	l16.1,16.1l-4.2,4.2L127.4,131.4z M125.3,109l10.4,10.4l-4,4L121.3,113L125.3,109z M137.5,121.2l16.1,16.1l-4,4l-16.1-16.1
	L137.5,121.2z M256,9.6c1.8,1.2,3.6,2.5,5.2,4.1c1.6,1.6,2.9,3.3,4.1,5.2c0.1,0.6,0.2,1.3,0.2,2c0,3-1.2,5.9-3.3,8.1L157.3,133.6
	l-16.1-16.1L246,12.7c2.2-2.2,5-3.3,8.1-3.3C254.7,9.4,255.4,9.5,256,9.6z M149.6,145.1l10.4,10.4l-4.2,4.2l-10.4-10.4L149.6,145.1z
	 M220.6,13.7c5.4-5.4,12.6-8.4,20.3-8.4c3.5,0,6.9,0.6,10.1,1.8c-2.6,0.6-4.9,1.9-6.9,3.8L139.4,115.6L129,105.3L220.6,13.7z
	 M119.4,114.9l10.4,10.4l-4.2,4.2l-10.4-10.4L119.4,114.9z M83.9,95.3l13.7,13.7c-1-0.1-1.9-0.2-2.9-0.2c-4.2,0-8.3,1.3-11.6,3.7
	L60.9,90.4c2.4-0.9,5-1.4,7.7-1.4C74.4,89,79.8,91.2,83.9,95.3z M17.7,130.9l35.6-35.6c1.5-1.5,3.2-2.8,5-3.8L81,114.3
	c-0.2,0.2-0.4,0.3-0.5,0.5l-46.7,46.7c-1.8,1.8-3.4,3.8-4.8,6L7.9,146.3C10,140.5,13.3,135.3,17.7,130.9z M5.3,160.9
	c0-4.1,0.6-8,1.7-11.8l20.6,20.6c-2.9,5.2-4.4,11.1-4.4,17.3c0,3.8,0.6,7.6,1.7,11.1l-7.2-7.2C9.7,182.9,5.3,172.2,5.3,160.9z
	 M84,257.1l-7.2-7.2c3.5,1.1,7.3,1.7,11.1,1.7c6.1,0,12-1.5,17.3-4.4l20.6,20.6c-3.8,1.1-7.8,1.7-11.8,1.7
	C102.6,269.6,92,265.1,84,257.1z M179.5,221.6L144,257.1c-4.4,4.4-9.7,7.7-15.4,9.8l-21.1-21.1c2.1-1.4,4.1-3,6-4.8l46.7-46.7
	c0.2-0.2,0.3-0.3,0.5-0.5l22.7,22.7C182.3,218.3,181,220,179.5,221.6z M184.4,214l-22.2-22.2c2.4-3.4,3.7-7.4,3.7-11.6
	c0-1-0.1-2-0.2-2.9l13.7,13.7C185.7,197.2,187.4,206.2,184.4,214z"/>
</svg>
